<svg width="29" height="30" viewBox="0 0 29 30" fill="none" xmlns="http://www.w3.org/2000/svg">
<g clip-path="url(#clip0_784_9046)">
<path d="M28.9688 22.2588L28.4179 29.9932H21.2461L21.7593 22.7275C21.822 21.8653 22.5479 21.1846 23.4175 21.1846H27.9611C28.2425 21.1846 28.5055 21.2971 28.6931 21.5032C28.8934 21.709 28.9873 21.9778 28.9688 22.2588Z" fill="#CE7A49"/>
<path d="M25.7034 13.295C25.7034 14.9067 24.3889 16.2185 22.7745 16.2185C21.1598 16.2185 19.8457 14.9067 19.8457 13.295C19.8457 11.6829 21.1598 10.3711 22.7745 10.3711C24.3889 10.3711 25.7034 11.6829 25.7034 13.295Z" fill="#CE7A49"/>
<path d="M22.7606 0.00683594H13.868C13.0483 0.00683594 12.3848 0.66909 12.3848 1.48759V5.50452C12.3848 6.31651 13.0483 6.98528 13.868 6.98528H16.3024C16.4151 6.98528 16.5277 7.02904 16.6089 7.11006L18.6492 9.09031C18.7242 9.16555 18.8057 9.14674 18.8495 9.12793C18.8933 9.10912 18.9621 9.06536 18.9621 8.95938V7.42871C18.9621 7.18493 19.1624 6.98528 19.4062 6.98528H22.7606C23.5807 6.98528 24.2439 6.32303 24.2439 5.50452V1.48759C24.2377 0.66909 23.5742 0.00683594 22.7606 0.00683594ZM15.3324 4.25524C14.9257 4.25524 14.5939 3.92394 14.5939 3.51776C14.5939 3.11194 14.9257 2.78064 15.3324 2.78064C15.7392 2.78064 16.071 3.11194 16.071 3.51776C16.0771 3.92394 15.7392 4.25524 15.3324 4.25524ZM18.3112 4.25524C17.9045 4.25524 17.5727 3.92394 17.5727 3.51776C17.5727 3.11194 17.9045 2.78064 18.3112 2.78064C18.718 2.78064 19.0498 3.11194 19.0498 3.51776C19.056 3.92394 18.718 4.25524 18.3112 4.25524ZM21.2901 4.25524C20.8833 4.25524 20.5515 3.92394 20.5515 3.51776C20.5515 3.11194 20.8833 2.78064 21.2901 2.78064C21.6968 2.78064 22.0286 3.11194 22.0286 3.51776C22.0348 3.92394 21.6968 4.25524 21.2901 4.25524Z" fill="#CE7A49"/>
<path d="M15.4774 3.51761C15.4774 3.59899 15.4147 3.66157 15.3336 3.66157C15.2521 3.66157 15.1895 3.59899 15.1895 3.51761C15.1895 3.4366 15.2521 3.37402 15.3336 3.37402C15.4147 3.37402 15.4774 3.4366 15.4774 3.51761Z" fill="#CE7A49"/>
<path d="M18.4556 3.51761C18.4556 3.59899 18.3933 3.66157 18.3118 3.66157C18.2303 3.66157 18.168 3.59899 18.168 3.51761C18.168 3.4366 18.2303 3.37402 18.3118 3.37402C18.3933 3.37402 18.4556 3.4366 18.4556 3.51761Z" fill="#CE7A49"/>
<path d="M21.4341 3.51761C21.4341 3.59899 21.3718 3.66157 21.2903 3.66157C21.2088 3.66157 21.1465 3.59899 21.1465 3.51761C21.1465 3.4366 21.2088 3.37402 21.2903 3.37402C21.3718 3.37402 21.4341 3.4366 21.4341 3.51761Z" fill="#CE7A49"/>
<mask id="mask0_784_9046" style="mask-type:luminance" maskUnits="userSpaceOnUse" x="-1" y="24" width="18" height="2">
<path d="M-0.03125 24.7227H16.0407V25.8338H-0.03125V24.7227Z" fill="white"/>
</mask>
<g mask="url(#mask0_784_9046)">
<path d="M-0.03125 24.752H15.9955V25.8204H-0.03125V24.752Z" fill="#CE7A49"/>
</g>
<path d="M19.0197 24.1963L18.8132 26.8764L16.3161 27.2135C15.0709 27.3824 14.1258 28.4505 14.107 29.7063L14.1009 29.9938H1.60352V26.7014H16.1785C16.5664 26.7014 16.8794 26.3889 16.8794 26.0018V24.5837H17.7306C18.1938 24.5837 18.6379 24.4462 19.0197 24.1963Z" fill="#CE7A49"/>
<path d="M27.0723 19.9664V20.2973H23.4176C22.0846 20.2973 20.9708 21.3343 20.877 22.6588L20.3638 29.9931H14.9882L14.9944 29.7117C15.0067 28.8936 15.6203 28.1999 16.4338 28.0877L19.2873 27.7065C19.4937 27.6816 19.6502 27.5127 19.6691 27.3003L19.9947 23.1022C20.007 22.9149 19.9005 22.7398 19.7317 22.6649C19.5564 22.5901 19.3561 22.6338 19.2311 22.7713L18.8117 23.2274C18.5364 23.5272 18.142 23.6957 17.7352 23.6957H13.217C12.8602 23.6957 12.5723 23.4086 12.5723 23.0523C12.5723 22.6964 12.8602 22.4089 13.217 22.4089H16.7214C16.8655 22.4089 17.0032 22.3401 17.0847 22.2215L18.9743 19.5287C19.3688 18.9605 20.0197 18.623 20.714 18.623H25.7332C26.4717 18.623 27.0723 19.2289 27.0723 19.9664Z" fill="#CE7A49"/>
<path d="M12.8306 20.223V21.5725C12.167 21.741 11.6791 22.3407 11.6791 23.0529C11.6791 23.3527 11.7668 23.6338 11.9167 23.8649H8.36236C8.48116 23.6403 8.54383 23.3838 8.54383 23.1155C8.54383 22.2159 7.81144 21.485 6.91026 21.485H4.05025V19.5043C4.05025 19.2609 3.85031 19.0609 3.60618 19.0609C3.36205 19.0609 3.16174 19.2609 3.16174 19.5043V21.9284C3.16174 22.1722 3.36205 22.3718 3.60618 22.3718H6.91026C7.32354 22.3718 7.66148 22.7093 7.66148 23.1216C7.66148 23.5339 7.32354 23.8714 6.91026 23.8714H3.30554C2.36705 23.8714 1.60352 23.1089 1.60352 22.1722V17.8738C1.60967 17.8051 1.66618 17.3866 1.97261 16.9805C2.41088 16.4123 3.14291 16.1121 4.16289 16.0936C6.49734 17.2181 7.62997 17.1931 10.0144 15.9746C11.51 16.0122 12.8306 16.4246 12.8306 20.223Z" fill="#CE7A49"/>
<path d="M9.29314 8.83482C9.3645 8.90607 9.43223 8.98058 9.49598 9.05834C9.56009 9.1361 9.62022 9.21676 9.676 9.30067C9.73214 9.38422 9.78394 9.47031 9.83139 9.55928C9.87884 9.64789 9.92194 9.73904 9.9607 9.832C9.99909 9.92495 10.0331 10.0197 10.0625 10.1159C10.0918 10.2121 10.1161 10.3098 10.1356 10.4085C10.1556 10.5073 10.1704 10.6067 10.1802 10.7069C10.19 10.8071 10.195 10.9073 10.195 11.0082C10.195 11.1088 10.19 11.2093 10.1802 11.3095C10.1704 11.4097 10.1556 11.5092 10.1356 11.6079C10.1161 11.7066 10.0918 11.8039 10.0625 11.9005C10.0331 11.9967 9.99909 12.0915 9.9607 12.1844C9.92194 12.2774 9.87884 12.3682 9.83139 12.4571C9.78394 12.5458 9.73214 12.6322 9.676 12.7157C9.62022 12.7993 9.56009 12.8803 9.49598 12.9581C9.43223 13.0358 9.3645 13.1104 9.29314 13.1816C9.22179 13.2525 9.14717 13.3201 9.0693 13.3842C8.99142 13.4478 8.91029 13.5078 8.82662 13.5635C8.74258 13.6196 8.65638 13.6713 8.56727 13.7187C8.47853 13.7661 8.38762 13.8091 8.29417 13.8478C8.20108 13.8862 8.10618 13.9202 8.00983 13.9495C7.91348 13.9788 7.81569 14.003 7.7168 14.0225C7.61792 14.0424 7.51831 14.0569 7.41798 14.067C7.31765 14.0768 7.21695 14.0819 7.1159 14.0819C7.0152 14.0819 6.91451 14.0768 6.81418 14.067C6.71384 14.0569 6.61424 14.0424 6.51535 14.0225C6.41647 14.003 6.31867 13.9788 6.22232 13.9495C6.12561 13.9202 6.03108 13.8862 5.93763 13.8478C5.84454 13.8091 5.75362 13.7661 5.66452 13.7187C5.57578 13.6713 5.48921 13.6196 5.40554 13.5635C5.32151 13.5078 5.24073 13.4478 5.16286 13.3842C5.08498 13.3201 5.01037 13.2525 4.93901 13.1816C4.86766 13.1104 4.79992 13.0358 4.73581 12.9581C4.67206 12.8803 4.61194 12.7993 4.55616 12.7157C4.50001 12.6318 4.44822 12.5458 4.40077 12.4571C4.35296 12.3682 4.31022 12.2774 4.27146 12.1844C4.2327 12.0915 4.19902 11.9967 4.16968 11.9005C4.14034 11.8039 4.11607 11.7066 4.09615 11.6079C4.07659 11.5092 4.06174 11.4097 4.05196 11.3095C4.04218 11.2093 4.03711 11.1088 4.03711 11.0082C4.03711 10.9073 4.04218 10.8071 4.05196 10.7069C4.06174 10.6067 4.07659 10.5073 4.09615 10.4085C4.11607 10.3098 4.14034 10.2121 4.16968 10.1159C4.19902 10.0197 4.2327 9.92495 4.27146 9.832C4.31022 9.73904 4.35296 9.64789 4.40077 9.55928C4.44822 9.47031 4.50001 9.38422 4.55616 9.30067C4.61194 9.21676 4.67206 9.1361 4.73581 9.05834C4.79992 8.98058 4.86766 8.90607 4.93901 8.83482C5.01037 8.76356 5.08498 8.69593 5.16286 8.63227C5.24073 8.56825 5.32151 8.50857 5.40554 8.45251C5.48921 8.39645 5.57578 8.34473 5.66452 8.29735C5.75362 8.24996 5.84454 8.20692 5.93763 8.16858C6.03108 8.12988 6.12561 8.09625 6.22232 8.06695C6.31867 8.03765 6.41647 8.01306 6.51535 7.99353C6.61424 7.97399 6.71384 7.95917 6.81418 7.9494C6.91451 7.93927 7.0152 7.93457 7.1159 7.93457C7.21695 7.93457 7.31765 7.93927 7.41798 7.9494C7.51831 7.95917 7.61792 7.97399 7.7168 7.99353C7.81569 8.01306 7.91348 8.03765 8.00983 8.06695C8.10618 8.09625 8.20108 8.12988 8.29417 8.16858C8.38762 8.20692 8.47853 8.24996 8.56727 8.29735C8.65638 8.34473 8.74258 8.39645 8.82662 8.45251C8.91029 8.50857 8.99142 8.56825 9.0693 8.63227C9.14717 8.69593 9.22179 8.76356 9.29314 8.83482Z" fill="#CE7A49"/>
</g>
<defs>
<clipPath id="clip0_784_9046">
<rect width="29" height="30" fill="white"/>
</clipPath>
</defs>
</svg>
