<svg width="30" height="30" viewBox="0 0 30 30" fill="none" xmlns="http://www.w3.org/2000/svg">
<path d="M2.5 26.25V23.75H13.75V9.78125C13.2083 9.59375 12.7396 9.30208 12.3438 8.90625C11.9479 8.51042 11.6562 8.04167 11.4688 7.5H7.5L11.25 16.25C11.25 17.2917 10.8229 18.1771 9.96875 18.9062C9.11458 19.6354 8.08333 20 6.875 20C5.66667 20 4.63542 19.6354 3.78125 18.9062C2.92708 18.1771 2.5 17.2917 2.5 16.25L6.25 7.5H3.75V5H11.4688C11.7188 4.27083 12.1667 3.67188 12.8125 3.20312C13.4583 2.73438 14.1875 2.5 15 2.5C15.8125 2.5 16.5417 2.73438 17.1875 3.20312C17.8333 3.67188 18.2812 4.27083 18.5312 5H26.25V7.5H23.75L27.5 16.25C27.5 17.2917 27.0729 18.1771 26.2188 18.9062C25.3646 19.6354 24.3333 20 23.125 20C21.9167 20 20.8854 19.6354 20.0312 18.9062C19.1771 18.1771 18.75 17.2917 18.75 16.25L22.5 7.5H18.5312C18.3438 8.04167 18.0521 8.51042 17.6562 8.90625C17.2604 9.30208 16.7917 9.59375 16.25 9.78125V23.75H27.5V26.25H2.5ZM20.7812 16.25H25.4688L23.125 10.8125L20.7812 16.25ZM4.53125 16.25H9.21875L6.875 10.8125L4.53125 16.25ZM15 7.5C15.3542 7.5 15.651 7.38021 15.8906 7.14062C16.1302 6.90104 16.25 6.60417 16.25 6.25C16.25 5.89583 16.1302 5.59896 15.8906 5.35938C15.651 5.11979 15.3542 5 15 5C14.6458 5 14.349 5.11979 14.1094 5.35938C13.8698 5.59896 13.75 5.89583 13.75 6.25C13.75 6.60417 13.8698 6.90104 14.1094 7.14062C14.349 7.38021 14.6458 7.5 15 7.5Z" fill="#CE7A49"/>
</svg>
