<svg width="30" height="30" viewBox="0 0 30 30" fill="none" xmlns="http://www.w3.org/2000/svg">
<path d="M19.375 21.25C19.8958 21.25 20.3385 21.0677 20.7031 20.7031C21.0677 20.3385 21.25 19.8958 21.25 19.375C21.25 18.8542 21.0677 18.4115 20.7031 18.0469C20.3385 17.6823 19.8958 17.5 19.375 17.5C18.8542 17.5 18.4115 17.6823 18.0469 18.0469C17.6823 18.4115 17.5 18.8542 17.5 19.375C17.5 19.8958 17.6823 20.3385 18.0469 20.7031C18.4115 21.0677 18.8542 21.25 19.375 21.25ZM8.125 21.25C8.64583 21.25 9.08854 21.0677 9.45312 20.7031C9.81771 20.3385 10 19.8958 10 19.375C10 18.8542 9.81771 18.4115 9.45312 18.0469C9.08854 17.6823 8.64583 17.5 8.125 17.5C7.60417 17.5 7.16146 17.6823 6.79688 18.0469C6.43229 18.4115 6.25 18.8542 6.25 19.375C6.25 19.8958 6.43229 20.3385 6.79688 20.7031C7.16146 21.0677 7.60417 21.25 8.125 21.25ZM21.25 15C19.5208 15 18.0469 14.3906 16.8281 13.1719C15.6094 11.9531 15 10.4792 15 8.75C15 7.04167 15.6042 5.57292 16.8125 4.34375C18.0208 3.11458 19.5 2.5 21.25 2.5C22.9792 2.5 24.4531 3.10938 25.6719 4.32812C26.8906 5.54688 27.5 7.02083 27.5 8.75C27.5 10.4792 26.8906 11.9531 25.6719 13.1719C24.4531 14.3906 22.9792 15 21.25 15ZM20.625 10H21.875V5H20.625V10ZM21.25 12.5C21.4167 12.5 21.5625 12.4375 21.6875 12.3125C21.8125 12.1875 21.875 12.0417 21.875 11.875C21.875 11.7083 21.8125 11.5625 21.6875 11.4375C21.5625 11.3125 21.4167 11.25 21.25 11.25C21.0833 11.25 20.9375 11.3125 20.8125 11.4375C20.6875 11.5625 20.625 11.7083 20.625 11.875C20.625 12.0417 20.6875 12.1875 20.8125 12.3125C20.9375 12.4375 21.0833 12.5 21.25 12.5ZM3.75 27.5C3.39583 27.5 3.09896 27.3802 2.85938 27.1406C2.61979 26.901 2.5 26.6042 2.5 26.25V16.25L5.125 8.75C5.25 8.375 5.47396 8.07292 5.79688 7.84375C6.11979 7.61458 6.47917 7.5 6.875 7.5H12.5938C12.5312 7.91667 12.5 8.33333 12.5 8.75C12.5 9.16667 12.5312 9.58333 12.5938 10H7.3125L6 13.75H14.0938C14.9271 14.9375 15.9688 15.8594 17.2188 16.5156C18.4688 17.1719 19.8125 17.5 21.25 17.5C21.8958 17.5 22.5365 17.4323 23.1719 17.2969C23.8073 17.1615 24.4167 16.9479 25 16.6562V26.25C25 26.6042 24.8802 26.901 24.6406 27.1406C24.401 27.3802 24.1042 27.5 23.75 27.5H22.5C22.1458 27.5 21.849 27.3802 21.6094 27.1406C21.3698 26.901 21.25 26.6042 21.25 26.25V25H6.25V26.25C6.25 26.6042 6.13021 26.901 5.89062 27.1406C5.65104 27.3802 5.35417 27.5 5 27.5H3.75Z" fill="#CE7A49"/>
</svg>
