<svg width="30" height="30" viewBox="0 0 30 30" fill="none" xmlns="http://www.w3.org/2000/svg">
<path d="M23.8125 27L20.1562 23.375L17.4062 26.125L16.5312 25.25C16.0521 24.7708 15.8125 24.1771 15.8125 23.4688C15.8125 22.7604 16.0521 22.1667 16.5312 21.6875L21.8125 16.4062C22.2917 15.9271 22.8854 15.6875 23.5938 15.6875C24.3021 15.6875 24.8958 15.9271 25.375 16.4062L26.25 17.2812L23.5 20.0312L27.125 23.6875C27.375 23.9375 27.5 24.2292 27.5 24.5625C27.5 24.8958 27.375 25.1875 27.125 25.4375L25.5625 27C25.3125 27.25 25.0208 27.375 24.6875 27.375C24.3542 27.375 24.0625 27.25 23.8125 27ZM27.5 7.375L13.3125 21.5625L13.4688 21.6875C13.9479 22.1667 14.1875 22.7604 14.1875 23.4688C14.1875 24.1771 13.9479 24.7708 13.4688 25.25L12.5938 26.125L9.84375 23.375L6.1875 27C5.9375 27.25 5.64583 27.375 5.3125 27.375C4.97917 27.375 4.6875 27.25 4.4375 27L2.875 25.4375C2.625 25.1875 2.5 24.8958 2.5 24.5625C2.5 24.2292 2.625 23.9375 2.875 23.6875L6.5 20.0312L3.75 17.2812L4.625 16.4062C5.10417 15.9271 5.69792 15.6875 6.40625 15.6875C7.11458 15.6875 7.70833 15.9271 8.1875 16.4062L8.3125 16.5625L22.5 2.375H27.5V7.375ZM8.6875 13.5625L2.5 7.375V2.375H7.5L13.6875 8.5625L8.6875 13.5625Z" fill="#CE7A49"/>
</svg>
