<svg width="30" height="30" viewBox="0 0 30 30" fill="none" xmlns="http://www.w3.org/2000/svg">
<path d="M22.5 7.5C21.8125 7.5 21.224 7.25521 20.7344 6.76562C20.2448 6.27604 20 5.6875 20 5C20 4.3125 20.2448 3.72396 20.7344 3.23438C21.224 2.74479 21.8125 2.5 22.5 2.5C23.1875 2.5 23.776 2.74479 24.2656 3.23438C24.7552 3.72396 25 4.3125 25 5C25 5.6875 24.7552 6.27604 24.2656 6.76562C23.776 7.25521 23.1875 7.5 22.5 7.5ZM21.25 27.5V17.5C21.25 16.6667 21.0365 15.9167 20.6094 15.25C20.1823 14.5833 19.6354 14.0625 18.9688 13.6875L20.0625 10.4688C20.2292 9.94792 20.5365 9.53125 20.9844 9.21875C21.4323 8.90625 21.9375 8.75 22.5 8.75C23.0625 8.75 23.5677 8.90625 24.0156 9.21875C24.4635 9.53125 24.7708 9.94792 24.9375 10.4688L28.125 20H25V27.5H21.25ZM15.625 14.375C15.1042 14.375 14.6615 14.1927 14.2969 13.8281C13.9323 13.4635 13.75 13.0208 13.75 12.5C13.75 11.9792 13.9323 11.5365 14.2969 11.1719C14.6615 10.8073 15.1042 10.625 15.625 10.625C16.1458 10.625 16.5885 10.8073 16.9531 11.1719C17.3177 11.5365 17.5 11.9792 17.5 12.5C17.5 13.0208 17.3177 13.4635 16.9531 13.8281C16.5885 14.1927 16.1458 14.375 15.625 14.375ZM6.875 7.5C6.1875 7.5 5.59896 7.25521 5.10938 6.76562C4.61979 6.27604 4.375 5.6875 4.375 5C4.375 4.3125 4.61979 3.72396 5.10938 3.23438C5.59896 2.74479 6.1875 2.5 6.875 2.5C7.5625 2.5 8.15104 2.74479 8.64062 3.23438C9.13021 3.72396 9.375 4.3125 9.375 5C9.375 5.6875 9.13021 6.27604 8.64062 6.76562C8.15104 7.25521 7.5625 7.5 6.875 7.5ZM4.375 27.5V18.75H2.5V11.25C2.5 10.5625 2.74479 9.97396 3.23438 9.48438C3.72396 8.99479 4.3125 8.75 5 8.75H8.75C9.4375 8.75 10.026 8.99479 10.5156 9.48438C11.0052 9.97396 11.25 10.5625 11.25 11.25V18.75H9.375V27.5H4.375ZM13.75 27.5V22.5H12.5V17.5C12.5 16.9792 12.6823 16.5365 13.0469 16.1719C13.4115 15.8073 13.8542 15.625 14.375 15.625H16.875C17.3958 15.625 17.8385 15.8073 18.2031 16.1719C18.5677 16.5365 18.75 16.9792 18.75 17.5V22.5H17.5V27.5H13.75Z" fill="#CE7A49"/>
</svg>
