<svg width="30" height="30" viewBox="0 0 30 30" fill="none" xmlns="http://www.w3.org/2000/svg">
<path d="M15 15C13.625 15 12.4479 14.5104 11.4688 13.5312C10.4896 12.5521 10 11.375 10 10C10 8.625 10.4896 7.44792 11.4688 6.46875C12.4479 5.48958 13.625 5 15 5C16.375 5 17.5521 5.48958 18.5312 6.46875C19.5104 7.44792 20 8.625 20 10C20 11.375 19.5104 12.5521 18.5312 13.5312C17.5521 14.5104 16.375 15 15 15ZM20 25V17C20.5208 17.1667 21.0312 17.3438 21.5312 17.5312C22.0312 17.7188 22.5208 17.9375 23 18.1875C23.625 18.5 24.1146 18.9531 24.4688 19.5469C24.8229 20.1406 25 20.7917 25 21.5V25H20ZM12.5 20.625V16.4375C12.9167 16.375 13.3333 16.3281 13.75 16.2969C14.1667 16.2656 14.5833 16.25 15 16.25C15.4167 16.25 15.8333 16.2656 16.25 16.2969C16.6667 16.3281 17.0833 16.375 17.5 16.4375V20.625H12.5ZM5 25V21.5C5 20.7917 5.17708 20.1406 5.53125 19.5469C5.88542 18.9531 6.375 18.5 7 18.1875C7.47917 17.9375 7.96875 17.7188 8.46875 17.5312C8.96875 17.3438 9.47917 17.1667 10 17V25H5Z" fill="#CE7A49"/>
</svg>
