<svg width="30" height="30" viewBox="0 0 30 30" fill="none" xmlns="http://www.w3.org/2000/svg">
<path d="M1.78125 27.5L0.03125 25.75L4.59375 21.1875L3.21875 17.5C3.07292 17.125 3.04167 16.6927 3.125 16.2031C3.20833 15.7135 3.44792 15.2708 3.84375 14.875L7.96875 10.75C8.21875 10.5 8.48958 10.3125 8.78125 10.1875C9.07292 10.0625 9.39583 10 9.75 10C10.1042 10 10.4271 10.0625 10.7188 10.1875C11.0104 10.3125 11.2812 10.5 11.5312 10.75L14.0312 13.1875C14.5938 13.75 15.2812 14.1927 16.0938 14.5156C16.9062 14.8385 17.7812 15 18.7188 15V17.5C17.4688 17.5 16.3021 17.3021 15.2188 16.9062C14.1354 16.5104 13.1979 15.9167 12.4062 15.125L11.5312 14.25L8.59375 17.1875L11.2188 19.875V27.5H8.71875V20.9375L7.09375 19.4375V22.1875L1.78125 27.5ZM18.7188 27.5V18.75L21.3438 16.25L20.5938 11.875C20.2812 12.25 19.9375 12.5833 19.5625 12.875C19.1875 13.1667 18.7812 13.4375 18.3438 13.6875C17.6562 13.6458 17.0052 13.5 16.3906 13.25C15.776 13 15.2604 12.6667 14.8438 12.25C15.7812 12.0833 16.6094 11.7656 17.3281 11.2969C18.0469 10.8281 18.6354 10.2292 19.0938 9.5L20.3438 7.5C20.6979 6.9375 21.1875 6.55729 21.8125 6.35938C22.4375 6.16146 23.0521 6.1875 23.6562 6.4375L29.9688 9.125V15H27.4688V10.75L25.2188 9.875L28.7188 27.5H26.0938L23.8438 18.125L21.2188 20.625V27.5H18.7188ZM14.3438 10.625C13.6562 10.625 13.0677 10.3802 12.5781 9.89062C12.0885 9.40104 11.8438 8.8125 11.8438 8.125C11.8438 7.4375 12.0885 6.84896 12.5781 6.35938C13.0677 5.86979 13.6562 5.625 14.3438 5.625C15.0312 5.625 15.6198 5.86979 16.1094 6.35938C16.599 6.84896 16.8438 7.4375 16.8438 8.125C16.8438 8.8125 16.599 9.40104 16.1094 9.89062C15.6198 10.3802 15.0312 10.625 14.3438 10.625ZM20.5938 5.625C19.9062 5.625 19.3177 5.38021 18.8281 4.89062C18.3385 4.40104 18.0938 3.8125 18.0938 3.125C18.0938 2.4375 18.3385 1.84896 18.8281 1.35938C19.3177 0.869792 19.9062 0.625 20.5938 0.625C21.2812 0.625 21.8698 0.869792 22.3594 1.35938C22.849 1.84896 23.0938 2.4375 23.0938 3.125C23.0938 3.8125 22.849 4.40104 22.3594 4.89062C21.8698 5.38021 21.2812 5.625 20.5938 5.625Z" fill="#CE7A49"/>
</svg>
