<svg width="30" height="30" viewBox="0 0 30 30" fill="none" xmlns="http://www.w3.org/2000/svg">
<path d="M5 26.25C4.3125 26.25 3.72396 26.0052 3.23438 25.5156C2.74479 25.026 2.5 24.4375 2.5 23.75V18.75H11.25V21.25H18.75V18.75H27.5V23.75C27.5 24.4375 27.2552 25.026 26.7656 25.5156C26.276 26.0052 25.6875 26.25 25 26.25H5ZM13.75 18.75V16.25H16.25V18.75H13.75ZM2.5 16.25V10C2.5 9.3125 2.74479 8.72396 3.23438 8.23438C3.72396 7.74479 4.3125 7.5 5 7.5H10V5C10 4.3125 10.2448 3.72396 10.7344 3.23438C11.224 2.74479 11.8125 2.5 12.5 2.5H17.5C18.1875 2.5 18.776 2.74479 19.2656 3.23438C19.7552 3.72396 20 4.3125 20 5V7.5H25C25.6875 7.5 26.276 7.74479 26.7656 8.23438C27.2552 8.72396 27.5 9.3125 27.5 10V16.25H18.75V13.75H11.25V16.25H2.5ZM12.5 7.5H17.5V5H12.5V7.5Z" fill="#CE7A49"/>
</svg>
