<svg width="18" height="18" viewBox="0 0 18 18" fill="none" xmlns="http://www.w3.org/2000/svg">
<path d="M10.9336 6.91876V9.77696C10.9336 9.85079 10.8773 9.90704 10.8035 9.90704H10.3465C10.3008 9.90704 10.2621 9.88243 10.241 9.8543L8.92969 8.08594V9.78048C8.92969 9.8543 8.87344 9.91055 8.79962 9.91055H8.34258C8.26876 9.91055 8.21251 9.8543 8.21251 9.78048V6.92227C8.21251 6.84844 8.26876 6.79219 8.34258 6.79219H8.7961C8.83477 6.79219 8.88048 6.81329 8.90157 6.84844L10.2129 8.6168V6.92227C10.2129 6.84844 10.2691 6.79219 10.343 6.79219H10.8C10.8738 6.78868 10.9336 6.84844 10.9336 6.91524V6.91876ZM7.63946 6.78868H7.18243C7.1086 6.78868 7.05235 6.84493 7.05235 6.91876V9.77696C7.05235 9.85079 7.1086 9.90704 7.18243 9.90704H7.63946C7.71329 9.90704 7.76954 9.85079 7.76954 9.77696V6.91876C7.76954 6.85196 7.71329 6.78868 7.63946 6.78868ZM6.53555 9.18282H5.28399V6.91876C5.28399 6.84493 5.22774 6.78868 5.15391 6.78868H4.69688C4.62305 6.78868 4.5668 6.84493 4.5668 6.91876V9.77696C4.5668 9.81212 4.57735 9.84024 4.60196 9.86485C4.62657 9.88594 4.65469 9.90001 4.68985 9.90001H6.52501C6.59883 9.90001 6.65508 9.84376 6.65508 9.76993V9.3129C6.65508 9.2461 6.59883 9.18282 6.53204 9.18282H6.53555ZM13.3453 6.78868H11.5066C11.4398 6.78868 11.3766 6.84493 11.3766 6.91876V9.77696C11.3766 9.84376 11.4328 9.90704 11.5066 9.90704H13.3418C13.4156 9.90704 13.4719 9.85079 13.4719 9.77696V9.31641C13.4719 9.24258 13.4156 9.18633 13.3418 9.18633H12.0938V8.70821H13.3418C13.4156 8.70821 13.4719 8.65196 13.4719 8.57813V8.11758C13.4719 8.04376 13.4156 7.98751 13.3418 7.98751H12.0938V7.50587H13.3418C13.4156 7.50587 13.4719 7.44962 13.4719 7.37579V6.91876C13.4684 6.85196 13.4121 6.78868 13.3418 6.78868H13.3453ZM18 3.2836V14.7445C17.9965 16.5445 16.5199 18.0035 14.7164 18H3.25548C1.45548 17.9965 -0.00350928 16.5164 6.34021e-06 14.7164V3.25548C0.00352197 1.45548 1.4836 -0.00350928 3.2836 6.34021e-06H14.7445C16.5445 0.00352197 18.0035 1.48008 18 3.2836ZM15.525 8.20899C15.525 5.27696 12.5824 2.88985 8.97188 2.88985C5.36134 2.88985 2.41876 5.27696 2.41876 8.20899C2.41876 10.8352 4.74962 13.0395 7.89962 13.4578C8.66602 13.6231 8.57813 13.9043 8.40587 14.9379C8.37774 15.1031 8.27227 15.5848 8.97188 15.293C9.67149 15.0012 12.7441 13.0711 14.1223 11.4891C15.0715 10.4449 15.525 9.38673 15.525 8.21602V8.20899Z" fill="white"/>
</svg>
